# xmcd
#
# Track frame offsets: 
#        150
#        9406
#        24158
#        40241
#        51233
#        67632
#        81438
#        100499
#        114278
#        131845
#        142804
#        159866
#        172782
#        189200
#
# Disc length: 2710 seconds
#
# Revision: 0
# Processed by: cddbd v1.5.2PL0 Copyright (c) Steve Scherf et al.
# Submitted via: ExactAudioCopyFreeDBPlugin 1.0
#
DISCID=9f0a940e
DTITLE=Bas Van Toor - Bas Van Toor Speelt Mondhormonica - Alleen Voor 
DTITLE=Jou (Studio Copie)
DYEAR=2002
DGENRE=Harmonica
TTITLE0=You Are The Sunshine Of My Life
TTITLE1=Lost Of Love
TTITLE2=As Time Goes By
TTITLE3=The Summerwind
TTITLE4=If Tomorrow Never Comes
TTITLE5=Eenzame Clowns Blues
TTITLE6=Crazy
TTITLE7=Smile
TTITLE8=Since I Met You Baby
TTITLE9=All The Way
TTITLE10=You Are Always On My Mind
TTITLE11=The Day Of Wine And Roses
TTITLE12=Unchained Melody
TTITLE13=For All We Know
EXTD=
EXTT0=
EXTT1=
EXTT2=
EXTT3=
EXTT4=
EXTT5=
EXTT6=
EXTT7=
EXTT8=
EXTT9=
EXTT10=
EXTT11=
EXTT12=
EXTT13=
PLAYORDER=
